<?xml version="1.0" standalone="no"?>
<!DOCTYPE svg PUBLIC "-//W3C//DTD SVG 20010904//EN"
 "http://www.w3.org/TR/2001/REC-SVG-20010904/DTD/svg10.dtd">
<svg version="1.0" xmlns="http://www.w3.org/2000/svg"
 width="696.000000pt" height="696.000000pt" viewBox="0 0 696.000000 696.000000"
 preserveAspectRatio="xMidYMid meet">
<metadata>
Created by potrace 1.11, written by Peter Selinger 2001-2013
</metadata>
<g transform="translate(0.000000,696.000000) scale(0.100000,-0.100000)"
fill="#000000" stroke="none">
<path d="M3932 6161 c-7 -4 -30 -7 -52 -7 -22 1 -40 -3 -40 -8 0 -5 -3 -7 -6
-3 -3 3 -23 -1 -45 -8 -90 -32 -158 -72 -211 -124 -17 -17 -35 -28 -39 -25 -5
3 -6 -2 -3 -10 3 -9 2 -16 -3 -16 -5 0 -17 -14 -27 -30 -9 -17 -22 -27 -28
-24 -7 4 -8 2 -4 -4 4 -6 -5 -29 -19 -51 -14 -23 -32 -59 -41 -81 -9 -22 -20
-37 -25 -34 -5 3 -6 -2 -3 -10 4 -10 1 -16 -7 -16 -7 0 -10 -3 -7 -6 7 -6 -20
-93 -35 -111 -5 -7 -7 -13 -3 -13 3 0 0 -16 -8 -35 -8 -19 -12 -35 -9 -35 3 0
1 -6 -4 -12 -6 -7 -16 -35 -22 -63 -7 -27 -17 -61 -21 -75 -5 -14 -14 -44 -20
-68 -6 -23 -15 -40 -20 -37 -6 3 -7 -1 -4 -9 7 -18 -14 -88 -30 -98 -7 -5 -6
-8 3 -8 11 0 11 -3 1 -15 -10 -12 -16 -13 -26 -4 -8 6 -11 16 -7 22 3 6 1 7
-6 3 -8 -6 -9 -11 -2 -20 9 -10 1 -13 -34 -12 -25 1 -45 3 -45 6 0 6 -88 3
-107 -4 -8 -4 -20 -3 -25 0 -14 9 -107 8 -115 0 -3 -3 -12 -1 -20 5 -8 8 -13
8 -13 1 0 -11 -18 -11 -37 1 -7 5 -13 4 -13 -2 0 -13 -41 -11 -59 3 -11 8 -13
8 -7 -1 5 -9 -3 -13 -28 -14 -20 -1 -42 -2 -48 -3 -7 -1 -19 3 -27 8 -11 8
-13 8 -7 -1 5 -9 -2 -13 -26 -14 -56 -2 -149 -17 -156 -24 -3 -3 -12 1 -20 8
-13 9 -14 9 -8 0 5 -9 0 -13 -16 -14 -13 0 -32 -3 -43 -5 -11 -2 -37 -6 -58
-8 -20 -2 -43 -8 -50 -13 -6 -6 -22 -9 -34 -8 -13 1 -23 -2 -23 -6 0 -12 -49
-17 -54 -5 -3 8 -5 7 -5 -1 -1 -6 -17 -17 -36 -23 -28 -9 -39 -9 -53 1 -14 11
-15 11 -4 -1 10 -12 5 -17 -30 -30 -30 -12 -47 -14 -56 -7 -10 8 -12 6 -10 -4
2 -9 -5 -14 -19 -13 -12 0 -20 -2 -18 -6 4 -7 -126 -66 -137 -62 -5 1 -8 -2
-8 -6 0 -5 -18 -16 -40 -26 -22 -10 -40 -22 -40 -27 0 -5 -9 -9 -20 -9 -11 0
-20 -4 -20 -10 0 -5 -7 -10 -15 -10 -8 0 -15 -4 -15 -10 0 -5 -6 -10 -14 -10
-8 0 -16 -3 -18 -7 -2 -5 -16 -19 -32 -33 -16 -14 -25 -18 -21 -10 5 8 -28
-21 -74 -65 -46 -44 -87 -79 -93 -77 -5 1 -7 -2 -3 -8 3 -5 1 -10 -4 -10 -6 0
-11 -5 -11 -11 0 -7 -11 -22 -24 -34 -14 -13 -22 -26 -19 -29 4 -3 2 -6 -4 -6
-5 0 -18 -16 -29 -35 -10 -19 -25 -35 -33 -35 -8 0 -12 -3 -9 -6 3 -3 -12 -39
-33 -80 -21 -41 -36 -74 -33 -74 4 0 2 -6 -4 -12 -5 -7 -15 -33 -22 -58 -7
-25 -17 -48 -24 -52 -8 -6 -7 -8 2 -8 10 0 10 -4 0 -22 -6 -13 -11 -36 -9 -52
2 -21 -1 -26 -11 -20 -10 6 -11 5 -1 -7 6 -8 9 -27 7 -44 -2 -16 -5 -44 -7
-62 -3 -18 1 -34 7 -37 7 -3 6 -5 -2 -5 -7 -1 -11 -5 -8 -10 3 -5 8 -42 12
-82 5 -72 8 -94 19 -169 5 -40 13 -75 15 -75 2 0 4 -12 13 -60 4 -16 11 -48
16 -69 5 -22 8 -44 5 -48 -3 -4 -1 -8 4 -8 5 0 15 -26 22 -57 7 -32 17 -64 22
-70 6 -7 8 -13 5 -13 -3 0 0 -21 8 -47 8 -25 12 -50 9 -55 -3 -4 0 -8 6 -8 6
0 8 -4 5 -10 -3 -5 -2 -10 3 -10 5 0 9 -6 9 -12 1 -24 11 -66 20 -85 5 -10 9
-25 8 -33 0 -8 3 -17 7 -20 3 -3 9 -17 11 -30 2 -14 7 -32 10 -40 4 -8 9 -28
11 -45 2 -16 6 -37 10 -45 3 -8 8 -26 10 -40 3 -14 5 -25 6 -25 1 0 3 -8 5
-17 2 -10 -2 -18 -8 -18 -6 0 -2 -7 9 -15 14 -11 15 -14 4 -15 -11 0 -12 -2
-2 -8 12 -8 23 -61 26 -124 0 -16 3 -28 6 -28 3 0 7 -19 8 -43 6 -72 10 -102
12 -102 2 0 13 -114 14 -157 1 -21 3 -38 6 -38 3 0 7 -11 8 -25 1 -14 -4 -25
-11 -25 -9 0 -9 -2 1 -8 7 -5 13 -29 15 -55 1 -26 4 -47 7 -47 3 0 5 -15 6
-33 1 -46 12 -138 20 -166 5 -18 4 -22 -5 -17 -9 6 -10 4 -2 -10 21 -39 31
-84 18 -84 -9 0 -9 -2 -1 -8 6 -4 15 -27 20 -52 8 -47 10 -55 14 -67 1 -5 3
-12 4 -18 1 -5 5 -17 9 -25 17 -36 36 -114 30 -123 -3 -6 -1 -7 5 -3 7 4 12 1
12 -7 0 -7 11 -37 25 -66 14 -28 22 -57 19 -63 -4 -7 -3 -8 4 -4 7 4 12 1 12
-8 0 -9 4 -16 8 -16 5 0 14 -11 20 -25 7 -14 16 -31 22 -38 63 -75 90 -105
119 -131 19 -17 42 -38 52 -48 10 -9 19 -14 22 -12 2 2 10 -2 17 -11 7 -8 17
-15 22 -15 15 0 38 -27 30 -35 -4 -5 -2 -5 5 -1 7 4 29 -1 50 -10 21 -10 40
-18 43 -18 3 -1 15 -7 26 -14 12 -6 24 -8 28 -5 3 3 6 2 6 -4 0 -6 6 -11 13
-10 6 0 23 -1 36 -1 21 -2 22 -4 10 -19 -13 -16 -12 -17 3 -5 11 9 28 11 55 6
21 -5 44 -7 52 -5 8 1 10 -2 6 -11 -6 -10 -5 -10 5 -1 9 9 19 9 33 2 14 -8 18
-8 13 0 -5 8 0 8 17 2 16 -6 28 -6 36 2 7 7 11 8 11 0 0 -11 53 -8 72 3 7 5 8
2 3 -6 -6 -10 -4 -11 6 -4 8 4 21 9 29 10 8 2 31 4 51 7 20 2 42 8 48 11 6 4
11 1 11 -6 0 -10 2 -10 9 0 4 8 10 12 12 11 7 -6 123 24 137 34 6 5 12 6 12 2
0 -4 6 -3 13 2 6 6 24 10 39 9 14 -1 25 1 22 5 -2 4 6 10 19 14 12 4 24 8 27
10 3 1 13 5 23 9 9 5 23 6 31 3 8 -3 17 1 20 9 3 9 10 13 15 10 5 -4 11 -1 13
5 2 7 18 12 35 13 17 0 29 4 27 7 -4 7 74 42 93 42 7 0 13 4 13 8 0 4 10 11
23 15 12 4 45 17 72 29 28 13 73 33 100 45 44 19 116 52 210 96 79 36 128 54
136 48 5 -3 12 2 15 10 3 9 12 16 20 16 8 0 22 4 32 9 37 19 69 32 82 35 20 4
52 16 73 27 12 6 17 5 17 -3 0 -9 3 -8 10 2 5 8 13 15 17 15 4 1 25 7 46 14
21 7 45 10 53 7 9 -3 12 -1 9 4 -5 8 8 14 18 8 1 -1 12 4 25 11 13 7 33 15 45
17 38 9 52 12 55 14 2 3 6 4 47 14 17 4 37 10 45 13 18 7 29 10 55 17 11 2 32
9 48 15 15 6 27 8 27 5 0 -2 8 0 18 5 11 6 30 12 43 15 13 3 39 9 58 15 19 6
38 8 44 4 6 -3 7 -1 3 5 -7 11 17 16 61 15 7 -1 10 3 7 8 -3 5 6 9 20 9 14 0
26 5 26 12 0 6 3 9 6 6 3 -4 34 4 69 17 35 12 66 20 69 17 3 -3 6 0 6 7 0 7 4
10 8 7 5 -3 20 1 35 9 15 8 27 11 27 8 0 -3 6 0 13 6 8 6 17 8 20 4 4 -3 7 -1
7 6 0 8 8 11 20 8 11 -3 18 -2 15 3 -6 10 24 22 36 14 5 -3 9 -1 9 4 0 7 50
36 58 33 4 -2 108 55 133 72 12 9 26 14 31 11 4 -3 8 -1 8 4 0 12 89 68 102
64 5 -1 7 1 5 5 -3 5 1 14 9 21 8 7 14 11 14 9 0 -4 65 53 93 80 34 35 83 93
78 93 -3 0 -1 4 4 8 36 25 142 234 145 284 1 4 7 27 16 50 8 23 17 64 20 92 4
28 10 53 15 54 5 2 6 9 2 15 -9 15 -10 57 -1 57 4 0 7 10 5 23 -1 15 3 21 13
19 8 -2 11 0 7 5 -5 4 -13 8 -18 8 -8 0 -11 8 -8 18 5 18 6 38 1 41 -4 2 -7
25 -7 50 1 25 -3 46 -8 46 -4 0 -5 5 -2 10 4 6 12 8 18 4 7 -3 4 1 -5 8 -10 9
-15 25 -14 41 2 15 0 27 -4 27 -4 0 -10 19 -12 42 -3 30 1 47 12 58 9 9 14 22
12 28 -2 7 1 12 7 12 6 0 11 6 11 14 0 8 7 22 16 30 8 9 12 16 8 16 -3 0 -1 7
6 15 7 8 9 15 5 15 -5 0 -1 8 8 18 10 10 14 22 11 25 -4 4 1 9 10 13 9 3 14
10 11 14 -3 5 2 30 11 57 9 26 17 53 18 60 1 7 5 16 9 19 4 4 7 18 7 31 0 13
3 22 8 20 4 -3 8 17 8 44 1 27 8 57 15 66 9 10 9 14 2 10 -8 -5 -11 0 -10 13
1 11 4 20 7 20 3 0 5 14 6 30 1 17 -4 30 -9 30 -7 0 -7 4 0 11 8 8 8 20 3 35
-6 14 -5 26 1 29 5 4 6 12 2 18 -13 21 -13 68 0 60 8 -4 7 -1 -1 9 -7 9 -15
31 -17 49 -3 19 -9 49 -14 67 -5 17 -7 32 -4 32 3 0 0 6 -6 13 -6 8 -8 16 -5
19 3 4 -2 20 -10 36 -12 23 -13 32 -3 35 6 3 3 6 -7 6 -11 1 -17 4 -13 7 3 4
-1 23 -9 42 -8 20 -12 42 -9 49 2 8 1 12 -4 9 -7 -5 -51 79 -51 98 0 4 -9 19
-20 33 -16 20 -17 29 -9 40 10 11 8 12 -6 6 -15 -5 -17 -3 -12 11 4 10 3 15
-3 11 -9 -5 -11 -1 -10 20 1 3 -6 13 -15 21 -8 9 -12 20 -9 26 4 6 3 8 -3 5
-5 -3 -17 7 -27 24 -9 16 -14 29 -10 29 4 0 -3 8 -14 19 -12 10 -22 21 -22 25
0 13 -93 146 -102 146 -5 0 -7 4 -4 8 3 5 -4 18 -14 30 -11 12 -20 24 -20 27
0 5 -32 44 -58 71 -7 8 -11 14 -7 14 3 0 -6 12 -20 28 -14 15 -36 43 -48 62
-12 19 -27 41 -34 48 -34 35 -101 130 -96 136 4 3 2 6 -4 6 -5 0 -25 21 -43
48 -19 26 -38 50 -43 53 -5 4 -6 13 -2 20 5 8 5 11 0 7 -11 -10 -97 110 -89
124 4 6 3 8 -3 5 -9 -6 -93 94 -93 111 0 4 -9 13 -20 20 -11 7 -20 17 -20 22
0 10 -16 31 -77 101 -18 20 -33 39 -33 42 0 3 -20 27 -45 53 -25 25 -45 51
-45 56 0 5 -4 6 -10 3 -5 -3 -10 -1 -10 4 0 6 -15 25 -32 42 -18 17 -31 37
-30 43 2 6 1 8 -3 4 -7 -7 -127 88 -152 120 -7 9 -13 12 -13 8 0 -4 -7 0 -16
8 -8 9 -22 16 -30 16 -8 0 -14 3 -14 8 0 4 -25 18 -55 32 -30 14 -55 29 -55
33 0 5 -4 6 -8 3 -5 -3 -20 1 -34 9 -32 16 -117 36 -175 40 -24 2 -46 6 -51 9
-4 2 -14 1 -22 -4 -8 -5 -19 -5 -25 0 -6 5 -16 5 -23 1z"/>
<path d="M4740 5766 c0 -2 8 -10 18 -17 15 -13 16 -12 3 4 -13 16 -21 21 -21
13z"/>
<path d="M3173 5351 c0 -11 5 -18 9 -15 4 3 5 11 1 19 -7 21 -12 19 -10 -4z"/>
<path d="M3150 5299 c0 -5 5 -7 10 -4 6 3 10 8 10 11 0 2 -4 4 -10 4 -5 0 -10
-5 -10 -11z"/>
<path d="M3213 5289 c-2 -23 3 -25 10 -4 4 8 3 16 -1 19 -4 3 -9 -4 -9 -15z"/>
<path d="M3033 5275 c0 -8 4 -12 9 -9 5 3 6 10 3 15 -9 13 -12 11 -12 -6z"/>
<path d="M2920 5240 c-9 -6 -10 -10 -3 -10 6 0 15 5 18 10 8 12 4 12 -15 0z"/>
<path d="M3055 5220 c3 -5 8 -10 11 -10 2 0 4 5 4 10 0 6 -5 10 -11 10 -5 0
-7 -4 -4 -10z"/>
<path d="M2370 5199 c0 -5 5 -7 10 -4 6 3 10 8 10 11 0 2 -4 4 -10 4 -5 0 -10
-5 -10 -11z"/>
<path d="M3100 5206 c0 -2 8 -10 18 -17 15 -13 16 -12 3 4 -13 16 -21 21 -21
13z"/>
<path d="M2954 5182 c4 -3 14 -7 22 -8 9 -1 13 0 10 4 -4 3 -14 7 -22 8 -9 1
-13 0 -10 -4z"/>
<path d="M3106 5162 c-3 -5 1 -9 9 -9 8 0 12 4 9 9 -3 4 -7 8 -9 8 -2 0 -6 -4
-9 -8z"/>
<path d="M2895 5140 c-3 -5 -1 -10 4 -10 6 0 11 5 11 10 0 6 -2 10 -4 10 -3 0
-8 -4 -11 -10z"/>
<path d="M1586 4878 c3 -5 10 -6 15 -3 13 9 11 12 -6 12 -8 0 -12 -4 -9 -9z"/>
<path d="M5746 4538 c3 -5 10 -6 15 -3 13 9 11 12 -6 12 -8 0 -12 -4 -9 -9z"/>
<path d="M5790 4360 c0 -5 5 -10 11 -10 5 0 7 5 4 10 -3 6 -8 10 -11 10 -2 0
-4 -4 -4 -10z"/>
<path d="M5916 4322 c-3 -5 1 -9 9 -9 8 0 12 4 9 9 -3 4 -7 8 -9 8 -2 0 -6 -4
-9 -8z"/>
<path d="M955 3881 c-3 -5 -2 -12 3 -15 5 -3 9 1 9 9 0 17 -3 19 -12 6z"/>
<path d="M996 3633 c-6 -14 -5 -15 5 -6 7 7 10 15 7 18 -3 3 -9 -2 -12 -12z"/>
<path d="M6073 3325 c0 -8 4 -12 9 -9 5 3 6 10 3 15 -9 13 -12 11 -12 -6z"/>
<path d="M1146 3078 c3 -5 10 -6 15 -3 13 9 11 12 -6 12 -8 0 -12 -4 -9 -9z"/>
<path d="M5770 3060 c0 -5 5 -10 11 -10 5 0 7 5 4 10 -3 6 -8 10 -11 10 -2 0
-4 -4 -4 -10z"/>
<path d="M5806 3058 c3 -5 10 -6 15 -3 13 9 11 12 -6 12 -8 0 -12 -4 -9 -9z"/>
<path d="M5770 3019 c0 -5 5 -7 10 -4 6 3 10 8 10 11 0 2 -4 4 -10 4 -5 0 -10
-5 -10 -11z"/>
<path d="M5770 2979 c0 -5 5 -7 10 -4 6 3 10 8 10 11 0 2 -4 4 -10 4 -5 0 -10
-5 -10 -11z"/>
<path d="M1150 2961 c0 -6 4 -13 10 -16 6 -3 7 1 4 9 -7 18 -14 21 -14 7z"/>
<path d="M5910 2960 c0 -5 5 -10 11 -10 5 0 7 5 4 10 -3 6 -8 10 -11 10 -2 0
-4 -4 -4 -10z"/>
<path d="M5814 2936 c1 -8 5 -18 8 -22 4 -3 5 1 4 10 -1 8 -5 18 -8 22 -4 3
-5 -1 -4 -10z"/>
<path d="M5950 2896 c0 -2 8 -10 18 -17 15 -13 16 -12 3 4 -13 16 -21 21 -21
13z"/>
<path d="M5774 2816 c1 -8 5 -18 8 -22 4 -3 5 1 4 10 -1 8 -5 18 -8 22 -4 3
-5 -1 -4 -10z"/>
<path d="M1260 2566 c0 -2 8 -10 18 -17 15 -13 16 -12 3 4 -13 16 -21 21 -21
13z"/>
<path d="M1079 2273 c-13 -16 -12 -17 4 -4 9 7 17 15 17 17 0 8 -8 3 -21 -13z"/>
<path d="M5709 2203 c-13 -16 -12 -17 4 -4 16 13 21 21 13 21 -2 0 -10 -8 -17
-17z"/>
<path d="M5466 1718 c3 -5 10 -6 15 -3 13 9 11 12 -6 12 -8 0 -12 -4 -9 -9z"/>
<path d="M1346 1602 c-3 -5 1 -9 9 -9 8 0 12 4 9 9 -3 4 -7 8 -9 8 -2 0 -6 -4
-9 -8z"/>
<path d="M1515 1151 c-3 -5 -2 -12 3 -15 5 -3 9 1 9 9 0 17 -3 19 -12 6z"/>
<path d="M3076 962 c-3 -5 1 -9 9 -9 8 0 12 4 9 9 -3 4 -7 8 -9 8 -2 0 -6 -4
-9 -8z"/>
<path d="M1830 881 c0 -6 4 -13 10 -16 6 -3 7 1 4 9 -7 18 -14 21 -14 7z"/>
<path d="M2955 880 c3 -5 8 -10 11 -10 2 0 4 5 4 10 0 6 -5 10 -11 10 -5 0 -7
-4 -4 -10z"/>
</g>
</svg>
