<svg width="335" height="83" viewBox="0 0 335 83" fill="none" xmlns="http://www.w3.org/2000/svg">
<g filter="url(#filter0_d)">
<path fill-rule="evenodd" clip-rule="evenodd" d="M287.57 19.0018C295.948 18.9201 303.902 21.6826 309.872 27.5405C317.025 34.5597 325.3 43.6058 322.408 53.1855C319.58 62.5532 307.153 63.3045 298.003 66.8504C290.269 69.8477 282.077 75.6523 274.829 71.6237C267.761 67.6947 269.045 57.7458 267.413 49.8465C265.856 42.312 261.595 34.4162 265.808 27.9698C270.315 21.0737 279.311 19.0822 287.57 19.0018Z" fill="url(#paint0_linear)"/>
</g>
<g filter="url(#filter1_d)">
<path fill-rule="evenodd" clip-rule="evenodd" d="M299.179 6.1478C306.916 4.72971 311.942 13.8291 316.686 20.0478C321.205 25.9716 326.201 32.3755 324.741 39.6584C323.246 47.1206 316.611 52.2073 309.614 55.3433C302.854 58.3729 295.135 59.1362 288.465 55.9169C281.831 52.7145 276.048 46.4307 276 39.1195C275.958 32.6549 284.536 30.5619 288.265 25.2569C292.707 18.9384 291.536 7.54862 299.179 6.1478Z" fill="url(#paint1_linear)"/>
</g>
<path d="M16.032 20.4C19.104 20.4 21.52 20.72 23.28 21.36C25.072 22 26.336 23.104 27.072 24.672C27.84 26.24 28.224 28.432 28.224 31.248C28.224 34.064 27.856 36.256 27.12 37.824C26.416 39.392 25.232 40.48 23.568 41.088C21.936 41.696 19.744 42.016 16.992 42.048C15.904 42.016 14.816 41.968 13.728 41.904C12.672 41.84 11.648 41.76 10.656 41.664V54H3.36V20.88C4.672 20.752 5.92 20.656 7.104 20.592C8.288 20.528 9.568 20.48 10.944 20.448C12.352 20.416 14.048 20.4 16.032 20.4ZM15.888 25.92C14.928 25.92 14 25.92 13.104 25.92C12.24 25.92 11.424 25.92 10.656 25.92V36.528H15.888C17.808 36.528 19.12 36.176 19.824 35.472C20.528 34.768 20.88 33.36 20.88 31.248C20.88 29.136 20.528 27.728 19.824 27.024C19.12 26.288 17.808 25.92 15.888 25.92ZM38.1199 30.288L38.7919 33.888C42.0559 31.072 45.2719 29.664 48.4399 29.664H49.6879L49.0159 36.192H47.0479C46.0239 36.192 44.9359 36.336 43.7839 36.624C42.6639 36.912 41.2879 37.344 39.6559 37.92V54H32.5999V30.288H38.1199ZM63.8944 29.664C66.8704 29.664 69.2544 30.08 71.0464 30.912C72.8384 31.712 74.1184 33.04 74.8864 34.896C75.6864 36.72 76.0864 39.152 76.0864 42.192C76.0864 45.232 75.6864 47.664 74.8864 49.488C74.1184 51.28 72.8384 52.576 71.0464 53.376C69.2544 54.176 66.8704 54.576 63.8944 54.576C60.9184 54.576 58.5344 54.176 56.7424 53.376C54.9504 52.576 53.6544 51.28 52.8544 49.488C52.0864 47.664 51.7024 45.232 51.7024 42.192C51.7024 39.152 52.0864 36.72 52.8544 34.896C53.6544 33.04 54.9504 31.712 56.7424 30.912C58.5344 30.08 60.9184 29.664 63.8944 29.664ZM63.8944 34.8C62.6464 34.8 61.6704 35.008 60.9664 35.424C60.2944 35.84 59.8144 36.592 59.5264 37.68C59.2384 38.736 59.0944 40.24 59.0944 42.192C59.0944 44.112 59.2384 45.6 59.5264 46.656C59.8144 47.712 60.2944 48.448 60.9664 48.864C61.6704 49.248 62.6464 49.44 63.8944 49.44C65.1424 49.44 66.1024 49.248 66.7744 48.864C67.4784 48.448 67.9744 47.712 68.2624 46.656C68.5504 45.6 68.6944 44.112 68.6944 42.192C68.6944 40.24 68.5504 38.736 68.2624 37.68C67.9744 36.592 67.4784 35.84 66.7744 35.424C66.1024 35.008 65.1424 34.8 63.8944 34.8Z" fill="#FFB000"/>
<path d="M88.7029 20.88V30.24C88.7029 31.616 88.5749 32.944 88.3189 34.224H91.2949L99.7429 20.88H107.663L99.0229 34.224C98.6709 34.8 98.2869 35.296 97.8709 35.712C97.4549 36.096 97.0389 36.432 96.6229 36.72V36.864C97.0709 37.152 97.5509 37.552 98.0629 38.064C98.5749 38.576 98.9909 39.104 99.3109 39.648L108.239 54H100.079L91.3429 39.312H88.3189C88.4469 39.888 88.5429 40.448 88.6069 40.992C88.6709 41.536 88.7029 42.064 88.7029 42.576V54H81.4069V20.88H88.7029ZM123.877 29.664C126.853 29.664 129.141 30.288 130.741 31.536C132.341 32.784 133.141 35.04 133.141 38.304V54H127.525L126.757 50.256C125.893 51.248 124.725 52.208 123.253 53.136C121.781 54.064 119.973 54.528 117.829 54.528C115.685 54.528 113.877 53.968 112.405 52.848C110.933 51.728 110.197 50.064 110.197 47.856V45.408C110.197 43.52 110.837 42.048 112.117 40.992C113.397 39.936 115.157 39.408 117.397 39.408H126.037V38.304C126.005 37.152 125.717 36.336 125.173 35.856C124.661 35.344 123.685 35.088 122.245 35.088C120.997 35.088 119.461 35.136 117.637 35.232C115.813 35.296 113.941 35.392 112.021 35.52L111.397 30.816C112.517 30.624 113.813 30.448 115.285 30.288C116.789 30.096 118.293 29.952 119.797 29.856C121.301 29.728 122.661 29.664 123.877 29.664ZM120.037 49.392C120.901 49.392 121.861 49.2 122.917 48.816C124.005 48.4 125.045 47.84 126.037 47.136V43.392H119.605C118.741 43.424 118.117 43.648 117.733 44.064C117.381 44.48 117.205 45.04 117.205 45.744V46.896C117.205 48.56 118.149 49.392 120.037 49.392ZM154.565 30.288V34.944H147.941V46.416C147.941 47.28 148.133 47.904 148.517 48.288C148.901 48.64 149.573 48.816 150.533 48.816H153.605L154.373 53.616C153.765 53.84 153.045 54.016 152.213 54.144C151.381 54.272 150.549 54.368 149.717 54.432C148.917 54.496 148.229 54.528 147.653 54.528C145.509 54.528 143.829 53.968 142.613 52.848C141.429 51.696 140.837 50.08 140.837 48V34.944H136.709V30.528L140.837 30.336V23.712H147.941V30.288H154.565ZM170.892 29.664C173.868 29.664 176.156 30.288 177.756 31.536C179.356 32.784 180.156 35.04 180.156 38.304V54H174.54L173.772 50.256C172.908 51.248 171.74 52.208 170.268 53.136C168.796 54.064 166.988 54.528 164.844 54.528C162.7 54.528 160.892 53.968 159.42 52.848C157.948 51.728 157.212 50.064 157.212 47.856V45.408C157.212 43.52 157.852 42.048 159.132 40.992C160.412 39.936 162.172 39.408 164.412 39.408H173.052V38.304C173.02 37.152 172.732 36.336 172.188 35.856C171.676 35.344 170.7 35.088 169.26 35.088C168.012 35.088 166.476 35.136 164.652 35.232C162.828 35.296 160.956 35.392 159.036 35.52L158.412 30.816C159.532 30.624 160.828 30.448 162.3 30.288C163.804 30.096 165.308 29.952 166.812 29.856C168.316 29.728 169.676 29.664 170.892 29.664ZM167.052 49.392C167.916 49.392 168.876 49.2 169.932 48.816C171.02 48.4 172.06 47.84 173.052 47.136V43.392H166.62C165.756 43.424 165.132 43.648 164.748 44.064C164.396 44.48 164.22 45.04 164.22 45.744V46.896C164.22 48.56 165.164 49.392 167.052 49.392ZM191.405 30.288L192.029 33.888C195.421 31.072 198.813 29.664 202.205 29.664C206.685 29.664 208.925 31.856 208.925 36.24V54H201.821V38.448C201.821 37.392 201.629 36.672 201.245 36.288C200.861 35.872 200.205 35.664 199.277 35.664C198.317 35.664 197.341 35.84 196.349 36.192C195.357 36.512 194.173 37.024 192.797 37.728V54H185.741V30.288H191.405ZM219.801 19.824C221.209 19.824 221.913 20.528 221.913 21.936V24.528C221.913 25.936 221.209 26.64 219.801 26.64H216.729C215.321 26.64 214.617 25.936 214.617 24.528V21.936C214.617 20.528 215.321 19.824 216.729 19.824H219.801ZM221.769 30.288V54H214.761V30.288H221.769ZM239.018 29.664C243.018 29.664 245.882 30.352 247.61 31.728C249.37 33.104 250.25 35.12 250.25 37.776C250.282 39.92 249.738 41.536 248.618 42.624C247.498 43.712 245.562 44.256 242.81 44.256H234.362C234.554 46.112 235.082 47.36 235.946 48C236.842 48.64 238.218 48.96 240.074 48.96C241.162 48.96 242.506 48.928 244.106 48.864C245.738 48.768 247.37 48.624 249.002 48.432L249.674 52.8C248.266 53.472 246.602 53.936 244.682 54.192C242.794 54.448 240.986 54.576 239.258 54.576C234.714 54.576 231.498 53.584 229.61 51.6C227.754 49.616 226.826 46.48 226.826 42.192C226.826 39.088 227.226 36.624 228.026 34.8C228.858 32.976 230.17 31.664 231.962 30.864C233.754 30.064 236.106 29.664 239.018 29.664ZM239.258 34.656C238.042 34.656 237.066 34.8 236.33 35.088C235.626 35.376 235.114 35.936 234.794 36.768C234.474 37.568 234.282 38.736 234.218 40.272H240.89C241.946 40.272 242.618 40.048 242.906 39.6C243.226 39.152 243.386 38.496 243.386 37.632C243.386 36.512 243.066 35.744 242.426 35.328C241.786 34.88 240.73 34.656 239.258 34.656Z" fill="#3A176D"/>
<defs>
<filter id="filter0_d" x="254" y="9" width="79" height="74" filterUnits="userSpaceOnUse" color-interpolation-filters="sRGB">
<feFlood flood-opacity="0" result="BackgroundImageFix"/>
<feColorMatrix in="SourceAlpha" type="matrix" values="0 0 0 0 0 0 0 0 0 0 0 0 0 0 0 0 0 0 127 0"/>
<feOffset/>
<feGaussianBlur stdDeviation="5"/>
<feColorMatrix type="matrix" values="0 0 0 0 0.0416667 0 0 0 0 0.0416667 0 0 0 0 0.0416667 0 0 0 0.28 0"/>
<feBlend mode="normal" in2="BackgroundImageFix" result="effect1_dropShadow"/>
<feBlend mode="normal" in="SourceGraphic" in2="effect1_dropShadow" result="shape"/>
</filter>
<filter id="filter1_d" x="266" y="-4" width="69" height="72" filterUnits="userSpaceOnUse" color-interpolation-filters="sRGB">
<feFlood flood-opacity="0" result="BackgroundImageFix"/>
<feColorMatrix in="SourceAlpha" type="matrix" values="0 0 0 0 0 0 0 0 0 0 0 0 0 0 0 0 0 0 127 0"/>
<feOffset/>
<feGaussianBlur stdDeviation="5"/>
<feColorMatrix type="matrix" values="0 0 0 0 0.0416667 0 0 0 0 0.0416667 0 0 0 0 0.0416667 0 0 0 0.28 0"/>
<feBlend mode="normal" in2="BackgroundImageFix" result="effect1_dropShadow"/>
<feBlend mode="normal" in="SourceGraphic" in2="effect1_dropShadow" result="shape"/>
</filter>
<linearGradient id="paint0_linear" x1="293.5" y1="19" x2="293.5" y2="73" gradientUnits="userSpaceOnUse">
<stop stop-color="#FFD510"/>
<stop offset="1" stop-color="#FFB000"/>
</linearGradient>
<linearGradient id="paint1_linear" x1="276" y1="53.1037" x2="330.715" y2="41.8517" gradientUnits="userSpaceOnUse">
<stop stop-color="#52219B"/>
<stop offset="1" stop-color="#1E0C36"/>
</linearGradient>
</defs>
</svg>
