<svg width="34" height="34" viewBox="0 0 34 34" fill="none" xmlns="http://www.w3.org/2000/svg">
<path d="M17 28.3333C14.3699 28.3333 11.8476 27.2885 9.98786 25.4288C8.12812 23.569 7.08333 21.0467 7.08333 18.4166C7.08333 15.7866 8.12812 13.2642 9.98786 11.4045C11.8476 9.54475 14.3699 8.49996 17 8.49996C19.6301 8.49996 22.1524 9.54475 24.0121 11.4045C25.8719 13.2642 26.9167 15.7866 26.9167 18.4166C26.9167 21.0467 25.8719 23.569 24.0121 25.4288C22.1524 27.2885 19.6301 28.3333 17 28.3333ZM26.9592 10.4691L28.9708 8.45746C28.3333 7.73496 27.6958 7.08329 26.9733 6.45996L24.9617 8.49996C22.7658 6.71496 20.0033 5.66663 17 5.66663C13.6185 5.66663 10.3755 7.00993 7.98439 9.40101C5.5933 11.7921 4.25 15.0351 4.25 18.4166C4.25 21.7981 5.5933 25.0411 7.98439 27.4322C10.3755 29.8233 13.6185 31.1666 17 31.1666C24.0833 31.1666 29.75 25.4575 29.75 18.4166C29.75 15.4133 28.7017 12.6508 26.9592 10.4691ZM15.5833 19.8333H18.4167V11.3333H15.5833V19.8333ZM21.25 1.41663H12.75V4.24996H21.25V1.41663Z" fill="white"/>
</svg>
